<mxfile host="app.diagrams.net" modified="2022-05-14T07:05:51.946Z" agent="5.0 (Macintosh; Intel Mac OS X 10_15_7) AppleWebKit/537.36 (KHTML, like Gecko) Chrome/100.0.4896.57 Whale/3.14.133.23 Safari/537.36" etag="zvqoOAQd1Uy9REnbtXjS" version="18.0.2" type="github">
  <diagram id="prtHgNgQTEPvFCAcTncT" name="Page-1">
    <mxGraphModel dx="1426" dy="801" grid="1" gridSize="10" guides="1" tooltips="1" connect="1" arrows="1" fold="1" page="1" pageScale="1" pageWidth="1169" pageHeight="827" math="0" shadow="0">
      <root>
        <mxCell id="0" />
        <mxCell id="1" parent="0" />
        <mxCell id="ZeaHY3tw1YIDqdw48G7n-1" value="사용자" style="rounded=0;whiteSpace=wrap;html=1;" vertex="1" parent="1">
          <mxGeometry x="80" y="40" width="120" height="60" as="geometry" />
        </mxCell>
        <mxCell id="ZeaHY3tw1YIDqdw48G7n-2" value="웹" style="rounded=0;whiteSpace=wrap;html=1;" vertex="1" parent="1">
          <mxGeometry x="280" y="40" width="120" height="60" as="geometry" />
        </mxCell>
        <mxCell id="ZeaHY3tw1YIDqdw48G7n-3" value="서버" style="rounded=0;whiteSpace=wrap;html=1;" vertex="1" parent="1">
          <mxGeometry x="560" y="40" width="120" height="60" as="geometry" />
        </mxCell>
        <mxCell id="ZeaHY3tw1YIDqdw48G7n-4" value="모듈" style="rounded=0;whiteSpace=wrap;html=1;" vertex="1" parent="1">
          <mxGeometry x="790" y="40" width="120" height="60" as="geometry" />
        </mxCell>
        <mxCell id="ZeaHY3tw1YIDqdw48G7n-5" value="Actor" style="shape=umlActor;verticalLabelPosition=bottom;verticalAlign=top;html=1;outlineConnect=0;" vertex="1" parent="1">
          <mxGeometry x="90" y="40" width="30" height="60" as="geometry" />
        </mxCell>
        <mxCell id="ZeaHY3tw1YIDqdw48G7n-6" value="비서시스템" style="rounded=0;whiteSpace=wrap;html=1;" vertex="1" parent="1">
          <mxGeometry x="960" y="40" width="120" height="60" as="geometry" />
        </mxCell>
        <mxCell id="ZeaHY3tw1YIDqdw48G7n-7" value="" style="endArrow=none;dashed=1;html=1;dashPattern=1 3;strokeWidth=2;rounded=0;" edge="1" parent="1">
          <mxGeometry width="50" height="50" relative="1" as="geometry">
            <mxPoint x="140" y="780" as="sourcePoint" />
            <mxPoint x="140" y="100" as="targetPoint" />
          </mxGeometry>
        </mxCell>
        <mxCell id="ZeaHY3tw1YIDqdw48G7n-8" value="" style="endArrow=none;dashed=1;html=1;dashPattern=1 3;strokeWidth=2;rounded=0;startArrow=none;" edge="1" parent="1" source="ZeaHY3tw1YIDqdw48G7n-51">
          <mxGeometry width="50" height="50" relative="1" as="geometry">
            <mxPoint x="339.5" y="720" as="sourcePoint" />
            <mxPoint x="339.5" y="100" as="targetPoint" />
          </mxGeometry>
        </mxCell>
        <mxCell id="ZeaHY3tw1YIDqdw48G7n-9" value="" style="endArrow=none;dashed=1;html=1;dashPattern=1 3;strokeWidth=2;rounded=0;startArrow=none;" edge="1" parent="1" source="ZeaHY3tw1YIDqdw48G7n-24">
          <mxGeometry width="50" height="50" relative="1" as="geometry">
            <mxPoint x="619.5" y="720" as="sourcePoint" />
            <mxPoint x="619.5" y="100" as="targetPoint" />
          </mxGeometry>
        </mxCell>
        <mxCell id="ZeaHY3tw1YIDqdw48G7n-10" value="" style="endArrow=none;dashed=1;html=1;dashPattern=1 3;strokeWidth=2;rounded=0;startArrow=none;" edge="1" parent="1" source="ZeaHY3tw1YIDqdw48G7n-31">
          <mxGeometry width="50" height="50" relative="1" as="geometry">
            <mxPoint x="849.5" y="720" as="sourcePoint" />
            <mxPoint x="849.5" y="100" as="targetPoint" />
          </mxGeometry>
        </mxCell>
        <mxCell id="ZeaHY3tw1YIDqdw48G7n-11" value="" style="endArrow=none;dashed=1;html=1;dashPattern=1 3;strokeWidth=2;rounded=0;" edge="1" parent="1">
          <mxGeometry width="50" height="50" relative="1" as="geometry">
            <mxPoint x="1020" y="770" as="sourcePoint" />
            <mxPoint x="1019.5" y="100" as="targetPoint" />
          </mxGeometry>
        </mxCell>
        <mxCell id="ZeaHY3tw1YIDqdw48G7n-14" value="" style="endArrow=classic;html=1;rounded=0;" edge="1" parent="1">
          <mxGeometry width="50" height="50" relative="1" as="geometry">
            <mxPoint x="140" y="155" as="sourcePoint" />
            <mxPoint x="340" y="155" as="targetPoint" />
          </mxGeometry>
        </mxCell>
        <mxCell id="ZeaHY3tw1YIDqdw48G7n-15" value="웹 접근" style="text;html=1;resizable=0;autosize=1;align=center;verticalAlign=middle;points=[];fillColor=none;strokeColor=none;rounded=0;" vertex="1" parent="1">
          <mxGeometry x="210" y="136" width="50" height="20" as="geometry" />
        </mxCell>
        <mxCell id="ZeaHY3tw1YIDqdw48G7n-18" value="권한 요청" style="text;html=1;resizable=0;autosize=1;align=center;verticalAlign=middle;points=[];fillColor=none;strokeColor=none;rounded=0;" vertex="1" parent="1">
          <mxGeometry x="445" y="199" width="60" height="20" as="geometry" />
        </mxCell>
        <mxCell id="ZeaHY3tw1YIDqdw48G7n-19" value="권한 부여" style="text;html=1;resizable=0;autosize=1;align=center;verticalAlign=middle;points=[];fillColor=none;strokeColor=none;rounded=0;" vertex="1" parent="1">
          <mxGeometry x="445" y="238" width="60" height="20" as="geometry" />
        </mxCell>
        <mxCell id="ZeaHY3tw1YIDqdw48G7n-20" value="" style="endArrow=classic;html=1;rounded=0;dashed=1;exitX=0;exitY=0.75;exitDx=0;exitDy=0;entryX=1.2;entryY=0.683;entryDx=0;entryDy=0;entryPerimeter=0;" edge="1" parent="1" source="ZeaHY3tw1YIDqdw48G7n-24" target="ZeaHY3tw1YIDqdw48G7n-51">
          <mxGeometry width="50" height="50" relative="1" as="geometry">
            <mxPoint x="600" y="261" as="sourcePoint" />
            <mxPoint x="360" y="261" as="targetPoint" />
          </mxGeometry>
        </mxCell>
        <mxCell id="ZeaHY3tw1YIDqdw48G7n-22" value="" style="endArrow=classic;html=1;rounded=0;entryX=-0.05;entryY=0.138;entryDx=0;entryDy=0;entryPerimeter=0;exitX=1.15;exitY=0.13;exitDx=0;exitDy=0;exitPerimeter=0;" edge="1" parent="1" source="ZeaHY3tw1YIDqdw48G7n-58" target="ZeaHY3tw1YIDqdw48G7n-28">
          <mxGeometry width="50" height="50" relative="1" as="geometry">
            <mxPoint x="350" y="362" as="sourcePoint" />
            <mxPoint x="600" y="361" as="targetPoint" />
          </mxGeometry>
        </mxCell>
        <mxCell id="ZeaHY3tw1YIDqdw48G7n-23" value="수어 동작 정보" style="text;html=1;resizable=0;autosize=1;align=center;verticalAlign=middle;points=[];fillColor=none;strokeColor=none;rounded=0;" vertex="1" parent="1">
          <mxGeometry x="435" y="335" width="80" height="20" as="geometry" />
        </mxCell>
        <mxCell id="ZeaHY3tw1YIDqdw48G7n-24" value="" style="rounded=0;whiteSpace=wrap;html=1;" vertex="1" parent="1">
          <mxGeometry x="610" y="201" width="20" height="80" as="geometry" />
        </mxCell>
        <mxCell id="ZeaHY3tw1YIDqdw48G7n-26" value="" style="endArrow=none;dashed=1;html=1;dashPattern=1 3;strokeWidth=2;rounded=0;startArrow=none;" edge="1" parent="1" source="ZeaHY3tw1YIDqdw48G7n-28" target="ZeaHY3tw1YIDqdw48G7n-24">
          <mxGeometry width="50" height="50" relative="1" as="geometry">
            <mxPoint x="619.5" y="720" as="sourcePoint" />
            <mxPoint x="619.5" y="100" as="targetPoint" />
          </mxGeometry>
        </mxCell>
        <mxCell id="ZeaHY3tw1YIDqdw48G7n-27" value="" style="endArrow=classic;html=1;rounded=0;" edge="1" parent="1">
          <mxGeometry width="50" height="50" relative="1" as="geometry">
            <mxPoint x="340" y="221" as="sourcePoint" />
            <mxPoint x="610" y="221" as="targetPoint" />
          </mxGeometry>
        </mxCell>
        <mxCell id="ZeaHY3tw1YIDqdw48G7n-28" value="" style="rounded=0;whiteSpace=wrap;html=1;" vertex="1" parent="1">
          <mxGeometry x="610" y="351" width="20" height="49" as="geometry" />
        </mxCell>
        <mxCell id="ZeaHY3tw1YIDqdw48G7n-29" value="" style="endArrow=none;dashed=1;html=1;dashPattern=1 3;strokeWidth=2;rounded=0;startArrow=none;" edge="1" parent="1" source="ZeaHY3tw1YIDqdw48G7n-40" target="ZeaHY3tw1YIDqdw48G7n-28">
          <mxGeometry width="50" height="50" relative="1" as="geometry">
            <mxPoint x="619.5" y="720" as="sourcePoint" />
            <mxPoint x="619.9607843137255" y="250" as="targetPoint" />
          </mxGeometry>
        </mxCell>
        <mxCell id="ZeaHY3tw1YIDqdw48G7n-30" value="" style="endArrow=classic;html=1;rounded=0;entryX=-0.15;entryY=0.125;entryDx=0;entryDy=0;entryPerimeter=0;" edge="1" parent="1" target="ZeaHY3tw1YIDqdw48G7n-31">
          <mxGeometry width="50" height="50" relative="1" as="geometry">
            <mxPoint x="630" y="368" as="sourcePoint" />
            <mxPoint x="830" y="372" as="targetPoint" />
          </mxGeometry>
        </mxCell>
        <mxCell id="ZeaHY3tw1YIDqdw48G7n-31" value="" style="rounded=0;whiteSpace=wrap;html=1;" vertex="1" parent="1">
          <mxGeometry x="840" y="365" width="20" height="25" as="geometry" />
        </mxCell>
        <mxCell id="ZeaHY3tw1YIDqdw48G7n-32" value="" style="endArrow=none;dashed=1;html=1;dashPattern=1 3;strokeWidth=2;rounded=0;" edge="1" parent="1" target="ZeaHY3tw1YIDqdw48G7n-31">
          <mxGeometry width="50" height="50" relative="1" as="geometry">
            <mxPoint x="850" y="770" as="sourcePoint" />
            <mxPoint x="849.5" y="100" as="targetPoint" />
          </mxGeometry>
        </mxCell>
        <mxCell id="ZeaHY3tw1YIDqdw48G7n-33" value="수어 번역 요청" style="text;html=1;resizable=0;autosize=1;align=center;verticalAlign=middle;points=[];fillColor=none;strokeColor=none;rounded=0;" vertex="1" parent="1">
          <mxGeometry x="695" y="348" width="80" height="20" as="geometry" />
        </mxCell>
        <mxCell id="ZeaHY3tw1YIDqdw48G7n-34" value="" style="endArrow=classic;html=1;rounded=0;dashed=1;exitX=0;exitY=0.75;exitDx=0;exitDy=0;" edge="1" parent="1">
          <mxGeometry width="50" height="50" relative="1" as="geometry">
            <mxPoint x="840" y="382" as="sourcePoint" />
            <mxPoint x="630" y="382" as="targetPoint" />
          </mxGeometry>
        </mxCell>
        <mxCell id="ZeaHY3tw1YIDqdw48G7n-35" value="번역 결과" style="text;html=1;resizable=0;autosize=1;align=center;verticalAlign=middle;points=[];fillColor=none;strokeColor=none;rounded=0;" vertex="1" parent="1">
          <mxGeometry x="705" y="382" width="60" height="20" as="geometry" />
        </mxCell>
        <mxCell id="ZeaHY3tw1YIDqdw48G7n-36" value="" style="endArrow=classic;html=1;rounded=0;dashed=1;exitX=0;exitY=0.75;exitDx=0;exitDy=0;" edge="1" parent="1">
          <mxGeometry width="50" height="50" relative="1" as="geometry">
            <mxPoint x="610" y="390" as="sourcePoint" />
            <mxPoint x="350" y="390" as="targetPoint" />
          </mxGeometry>
        </mxCell>
        <mxCell id="ZeaHY3tw1YIDqdw48G7n-37" value="명령어 리스트" style="text;html=1;resizable=0;autosize=1;align=center;verticalAlign=middle;points=[];fillColor=none;strokeColor=none;rounded=0;" vertex="1" parent="1">
          <mxGeometry x="440" y="390" width="80" height="20" as="geometry" />
        </mxCell>
        <mxCell id="ZeaHY3tw1YIDqdw48G7n-38" value="" style="endArrow=classic;html=1;rounded=0;exitX=1.1;exitY=0.637;exitDx=0;exitDy=0;exitPerimeter=0;entryX=0;entryY=0.25;entryDx=0;entryDy=0;" edge="1" parent="1" source="ZeaHY3tw1YIDqdw48G7n-58" target="ZeaHY3tw1YIDqdw48G7n-40">
          <mxGeometry width="50" height="50" relative="1" as="geometry">
            <mxPoint x="360" y="502" as="sourcePoint" />
            <mxPoint x="600" y="457" as="targetPoint" />
          </mxGeometry>
        </mxCell>
        <mxCell id="ZeaHY3tw1YIDqdw48G7n-39" value="리스트 내 명령어 선택" style="text;html=1;resizable=0;autosize=1;align=center;verticalAlign=middle;points=[];fillColor=none;strokeColor=none;rounded=0;" vertex="1" parent="1">
          <mxGeometry x="420" y="440" width="120" height="20" as="geometry" />
        </mxCell>
        <mxCell id="ZeaHY3tw1YIDqdw48G7n-40" value="" style="rounded=0;whiteSpace=wrap;html=1;" vertex="1" parent="1">
          <mxGeometry x="610" y="440" width="20" height="80" as="geometry" />
        </mxCell>
        <mxCell id="ZeaHY3tw1YIDqdw48G7n-41" value="" style="endArrow=none;dashed=1;html=1;dashPattern=1 3;strokeWidth=2;rounded=0;startArrow=none;" edge="1" parent="1" source="ZeaHY3tw1YIDqdw48G7n-73" target="ZeaHY3tw1YIDqdw48G7n-40">
          <mxGeometry width="50" height="50" relative="1" as="geometry">
            <mxPoint x="620" y="770" as="sourcePoint" />
            <mxPoint x="619.95" y="360" as="targetPoint" />
          </mxGeometry>
        </mxCell>
        <mxCell id="ZeaHY3tw1YIDqdw48G7n-42" value="" style="endArrow=classic;html=1;rounded=0;" edge="1" parent="1">
          <mxGeometry width="50" height="50" relative="1" as="geometry">
            <mxPoint x="630" y="471" as="sourcePoint" />
            <mxPoint x="1010" y="472" as="targetPoint" />
          </mxGeometry>
        </mxCell>
        <mxCell id="ZeaHY3tw1YIDqdw48G7n-43" value="" style="rounded=0;whiteSpace=wrap;html=1;" vertex="1" parent="1">
          <mxGeometry x="1010" y="453" width="20" height="66" as="geometry" />
        </mxCell>
        <mxCell id="ZeaHY3tw1YIDqdw48G7n-44" value="" style="endArrow=classic;html=1;rounded=0;dashed=1;entryX=1;entryY=0.75;entryDx=0;entryDy=0;exitX=0;exitY=0.5;exitDx=0;exitDy=0;" edge="1" parent="1" source="ZeaHY3tw1YIDqdw48G7n-43">
          <mxGeometry width="50" height="50" relative="1" as="geometry">
            <mxPoint x="1000" y="490" as="sourcePoint" />
            <mxPoint x="630" y="486" as="targetPoint" />
          </mxGeometry>
        </mxCell>
        <mxCell id="ZeaHY3tw1YIDqdw48G7n-45" value="비서 서비스 요청" style="text;html=1;resizable=0;autosize=1;align=center;verticalAlign=middle;points=[];fillColor=none;strokeColor=none;rounded=0;" vertex="1" parent="1">
          <mxGeometry x="744" y="447" width="90" height="20" as="geometry" />
        </mxCell>
        <mxCell id="ZeaHY3tw1YIDqdw48G7n-46" value="비서 서비스 응답" style="text;html=1;resizable=0;autosize=1;align=center;verticalAlign=middle;points=[];fillColor=none;strokeColor=none;rounded=0;" vertex="1" parent="1">
          <mxGeometry x="744" y="489" width="90" height="20" as="geometry" />
        </mxCell>
        <mxCell id="ZeaHY3tw1YIDqdw48G7n-47" value="" style="endArrow=classic;html=1;rounded=0;dashed=1;exitX=-0.2;exitY=0.888;exitDx=0;exitDy=0;exitPerimeter=0;" edge="1" parent="1" source="ZeaHY3tw1YIDqdw48G7n-40">
          <mxGeometry width="50" height="50" relative="1" as="geometry">
            <mxPoint x="600" y="510" as="sourcePoint" />
            <mxPoint x="360" y="510" as="targetPoint" />
          </mxGeometry>
        </mxCell>
        <mxCell id="ZeaHY3tw1YIDqdw48G7n-48" value="비서 서비스 전달" style="text;html=1;resizable=0;autosize=1;align=center;verticalAlign=middle;points=[];fillColor=none;strokeColor=none;rounded=0;" vertex="1" parent="1">
          <mxGeometry x="430" y="512" width="90" height="20" as="geometry" />
        </mxCell>
        <mxCell id="ZeaHY3tw1YIDqdw48G7n-52" value="" style="endArrow=classic;html=1;rounded=0;entryX=-0.2;entryY=0.08;entryDx=0;entryDy=0;entryPerimeter=0;" edge="1" parent="1">
          <mxGeometry width="50" height="50" relative="1" as="geometry">
            <mxPoint x="140" y="199" as="sourcePoint" />
            <mxPoint x="326" y="198.60000000000002" as="targetPoint" />
          </mxGeometry>
        </mxCell>
        <mxCell id="ZeaHY3tw1YIDqdw48G7n-51" value="" style="rounded=0;whiteSpace=wrap;html=1;" vertex="1" parent="1">
          <mxGeometry x="330" y="180" width="20" height="120" as="geometry" />
        </mxCell>
        <mxCell id="ZeaHY3tw1YIDqdw48G7n-53" value="" style="endArrow=none;dashed=1;html=1;dashPattern=1 3;strokeWidth=2;rounded=0;startArrow=none;" edge="1" parent="1" source="ZeaHY3tw1YIDqdw48G7n-58" target="ZeaHY3tw1YIDqdw48G7n-51">
          <mxGeometry width="50" height="50" relative="1" as="geometry">
            <mxPoint x="339.5" y="720" as="sourcePoint" />
            <mxPoint x="339.5" y="100" as="targetPoint" />
          </mxGeometry>
        </mxCell>
        <mxCell id="ZeaHY3tw1YIDqdw48G7n-54" value="로그인 요청" style="text;html=1;resizable=0;autosize=1;align=center;verticalAlign=middle;points=[];fillColor=none;strokeColor=none;rounded=0;" vertex="1" parent="1">
          <mxGeometry x="200" y="179" width="70" height="20" as="geometry" />
        </mxCell>
        <mxCell id="ZeaHY3tw1YIDqdw48G7n-55" value="" style="endArrow=classic;html=1;rounded=0;dashed=1;exitX=0;exitY=0.75;exitDx=0;exitDy=0;" edge="1" parent="1">
          <mxGeometry width="50" height="50" relative="1" as="geometry">
            <mxPoint x="330" y="281" as="sourcePoint" />
            <mxPoint x="140" y="282" as="targetPoint" />
          </mxGeometry>
        </mxCell>
        <mxCell id="ZeaHY3tw1YIDqdw48G7n-56" value="로그인 완료" style="text;html=1;resizable=0;autosize=1;align=center;verticalAlign=middle;points=[];fillColor=none;strokeColor=none;rounded=0;" vertex="1" parent="1">
          <mxGeometry x="200" y="258" width="70" height="20" as="geometry" />
        </mxCell>
        <mxCell id="ZeaHY3tw1YIDqdw48G7n-58" value="" style="rounded=0;whiteSpace=wrap;html=1;" vertex="1" parent="1">
          <mxGeometry x="330" y="330" width="20" height="200" as="geometry" />
        </mxCell>
        <mxCell id="ZeaHY3tw1YIDqdw48G7n-59" value="" style="endArrow=none;dashed=1;html=1;dashPattern=1 3;strokeWidth=2;rounded=0;" edge="1" parent="1" target="ZeaHY3tw1YIDqdw48G7n-58">
          <mxGeometry width="50" height="50" relative="1" as="geometry">
            <mxPoint x="340" y="780" as="sourcePoint" />
            <mxPoint x="339.9375" y="300" as="targetPoint" />
          </mxGeometry>
        </mxCell>
        <mxCell id="ZeaHY3tw1YIDqdw48G7n-60" value="" style="endArrow=classic;html=1;rounded=0;" edge="1" parent="1">
          <mxGeometry width="50" height="50" relative="1" as="geometry">
            <mxPoint x="141" y="341" as="sourcePoint" />
            <mxPoint x="330" y="340" as="targetPoint" />
          </mxGeometry>
        </mxCell>
        <mxCell id="ZeaHY3tw1YIDqdw48G7n-61" value="수어 동작" style="text;html=1;resizable=0;autosize=1;align=center;verticalAlign=middle;points=[];fillColor=none;strokeColor=none;rounded=0;" vertex="1" parent="1">
          <mxGeometry x="205" y="321" width="60" height="20" as="geometry" />
        </mxCell>
        <mxCell id="ZeaHY3tw1YIDqdw48G7n-62" value="" style="endArrow=classic;html=1;rounded=0;dashed=1;exitX=0;exitY=0.75;exitDx=0;exitDy=0;" edge="1" parent="1">
          <mxGeometry width="50" height="50" relative="1" as="geometry">
            <mxPoint x="330" y="521" as="sourcePoint" />
            <mxPoint x="140" y="522" as="targetPoint" />
          </mxGeometry>
        </mxCell>
        <mxCell id="ZeaHY3tw1YIDqdw48G7n-63" value="비서 서비스 제공" style="text;html=1;resizable=0;autosize=1;align=center;verticalAlign=middle;points=[];fillColor=none;strokeColor=none;rounded=0;" vertex="1" parent="1">
          <mxGeometry x="190" y="502" width="90" height="20" as="geometry" />
        </mxCell>
        <mxCell id="ZeaHY3tw1YIDqdw48G7n-65" value="" style="endArrow=classic;html=1;rounded=0;" edge="1" parent="1">
          <mxGeometry width="50" height="50" relative="1" as="geometry">
            <mxPoint x="140" y="580" as="sourcePoint" />
            <mxPoint x="340" y="580" as="targetPoint" />
          </mxGeometry>
        </mxCell>
        <mxCell id="ZeaHY3tw1YIDqdw48G7n-71" value="주변 소리 전달" style="text;html=1;resizable=0;autosize=1;align=center;verticalAlign=middle;points=[];fillColor=none;strokeColor=none;rounded=0;" vertex="1" parent="1">
          <mxGeometry x="195" y="560" width="80" height="20" as="geometry" />
        </mxCell>
        <mxCell id="ZeaHY3tw1YIDqdw48G7n-72" value="" style="endArrow=classic;html=1;rounded=0;entryX=-0.05;entryY=0.138;entryDx=0;entryDy=0;entryPerimeter=0;" edge="1" parent="1">
          <mxGeometry width="50" height="50" relative="1" as="geometry">
            <mxPoint x="340" y="592" as="sourcePoint" />
            <mxPoint x="606" y="591.762" as="targetPoint" />
          </mxGeometry>
        </mxCell>
        <mxCell id="ZeaHY3tw1YIDqdw48G7n-73" value="" style="rounded=0;whiteSpace=wrap;html=1;" vertex="1" parent="1">
          <mxGeometry x="610" y="580" width="20" height="130" as="geometry" />
        </mxCell>
        <mxCell id="ZeaHY3tw1YIDqdw48G7n-74" value="" style="endArrow=none;dashed=1;html=1;dashPattern=1 3;strokeWidth=2;rounded=0;" edge="1" parent="1" target="ZeaHY3tw1YIDqdw48G7n-73">
          <mxGeometry width="50" height="50" relative="1" as="geometry">
            <mxPoint x="620" y="770" as="sourcePoint" />
            <mxPoint x="620" y="520" as="targetPoint" />
          </mxGeometry>
        </mxCell>
        <mxCell id="ZeaHY3tw1YIDqdw48G7n-76" value="수어 동작 정보" style="text;html=1;resizable=0;autosize=1;align=center;verticalAlign=middle;points=[];fillColor=none;strokeColor=none;rounded=0;" vertex="1" parent="1">
          <mxGeometry x="435" y="570" width="80" height="20" as="geometry" />
        </mxCell>
        <mxCell id="ZeaHY3tw1YIDqdw48G7n-78" value="" style="endArrow=classic;html=1;rounded=0;exitX=1.15;exitY=0.13;exitDx=0;exitDy=0;exitPerimeter=0;" edge="1" parent="1">
          <mxGeometry width="50" height="50" relative="1" as="geometry">
            <mxPoint x="630" y="610" as="sourcePoint" />
            <mxPoint x="840" y="612" as="targetPoint" />
          </mxGeometry>
        </mxCell>
        <mxCell id="ZeaHY3tw1YIDqdw48G7n-79" value="" style="rounded=0;whiteSpace=wrap;html=1;" vertex="1" parent="1">
          <mxGeometry x="840" y="600" width="20" height="50" as="geometry" />
        </mxCell>
        <mxCell id="ZeaHY3tw1YIDqdw48G7n-80" value="" style="endArrow=classic;html=1;rounded=0;dashed=1;exitX=0;exitY=0.75;exitDx=0;exitDy=0;" edge="1" parent="1">
          <mxGeometry width="50" height="50" relative="1" as="geometry">
            <mxPoint x="840" y="640" as="sourcePoint" />
            <mxPoint x="630" y="640" as="targetPoint" />
          </mxGeometry>
        </mxCell>
        <mxCell id="ZeaHY3tw1YIDqdw48G7n-81" value="소리 분석 요청" style="text;html=1;resizable=0;autosize=1;align=center;verticalAlign=middle;points=[];fillColor=none;strokeColor=none;rounded=0;" vertex="1" parent="1">
          <mxGeometry x="695" y="590" width="80" height="20" as="geometry" />
        </mxCell>
        <mxCell id="ZeaHY3tw1YIDqdw48G7n-82" value="분석 결과" style="text;html=1;resizable=0;autosize=1;align=center;verticalAlign=middle;points=[];fillColor=none;strokeColor=none;rounded=0;" vertex="1" parent="1">
          <mxGeometry x="705" y="640" width="60" height="20" as="geometry" />
        </mxCell>
        <mxCell id="ZeaHY3tw1YIDqdw48G7n-83" value="" style="endArrow=classic;html=1;rounded=0;exitX=1.15;exitY=0.13;exitDx=0;exitDy=0;exitPerimeter=0;entryX=0;entryY=0.25;entryDx=0;entryDy=0;" edge="1" parent="1" target="ZeaHY3tw1YIDqdw48G7n-84">
          <mxGeometry width="50" height="50" relative="1" as="geometry">
            <mxPoint x="630" y="690" as="sourcePoint" />
            <mxPoint x="1000" y="690" as="targetPoint" />
          </mxGeometry>
        </mxCell>
        <mxCell id="ZeaHY3tw1YIDqdw48G7n-84" value="" style="rounded=0;whiteSpace=wrap;html=1;" vertex="1" parent="1">
          <mxGeometry x="1010" y="674" width="20" height="66" as="geometry" />
        </mxCell>
        <mxCell id="ZeaHY3tw1YIDqdw48G7n-85" value="알림 서비스 요청" style="text;html=1;resizable=0;autosize=1;align=center;verticalAlign=middle;points=[];fillColor=none;strokeColor=none;rounded=0;" vertex="1" parent="1">
          <mxGeometry x="725" y="670" width="90" height="20" as="geometry" />
        </mxCell>
        <mxCell id="ZeaHY3tw1YIDqdw48G7n-86" value="" style="endArrow=classic;html=1;rounded=0;dashed=1;exitX=0;exitY=0.5;exitDx=0;exitDy=0;" edge="1" parent="1">
          <mxGeometry width="50" height="50" relative="1" as="geometry">
            <mxPoint x="1010" y="730" as="sourcePoint" />
            <mxPoint x="140" y="730" as="targetPoint" />
          </mxGeometry>
        </mxCell>
        <mxCell id="ZeaHY3tw1YIDqdw48G7n-87" value="알림 서비스 제공" style="text;html=1;resizable=0;autosize=1;align=center;verticalAlign=middle;points=[];fillColor=none;strokeColor=none;rounded=0;" vertex="1" parent="1">
          <mxGeometry x="180" y="730" width="90" height="20" as="geometry" />
        </mxCell>
        <mxCell id="ZeaHY3tw1YIDqdw48G7n-90" value="" style="rounded=0;whiteSpace=wrap;html=1;fillColor=none;" vertex="1" parent="1">
          <mxGeometry x="50" y="550" width="1010" height="230" as="geometry" />
        </mxCell>
        <mxCell id="ZeaHY3tw1YIDqdw48G7n-92" value="" style="verticalLabelPosition=bottom;verticalAlign=top;html=1;shape=card;whiteSpace=wrap;size=20;arcSize=12;fillColor=none;rotation=-180;" vertex="1" parent="1">
          <mxGeometry x="50" y="550" width="80" height="30" as="geometry" />
        </mxCell>
        <mxCell id="ZeaHY3tw1YIDqdw48G7n-93" value="Loop" style="text;html=1;strokeColor=none;fillColor=none;align=center;verticalAlign=middle;whiteSpace=wrap;rounded=0;" vertex="1" parent="1">
          <mxGeometry x="50" y="550" width="60" height="30" as="geometry" />
        </mxCell>
        <mxCell id="ZeaHY3tw1YIDqdw48G7n-95" value="" style="rounded=0;whiteSpace=wrap;html=1;fillColor=none;" vertex="1" parent="1">
          <mxGeometry x="60" y="660" width="980" height="100" as="geometry" />
        </mxCell>
        <mxCell id="ZeaHY3tw1YIDqdw48G7n-98" value="" style="verticalLabelPosition=bottom;verticalAlign=top;html=1;shape=card;whiteSpace=wrap;size=20;arcSize=12;fillColor=none;rotation=-180;" vertex="1" parent="1">
          <mxGeometry x="60" y="660" width="70" height="30" as="geometry" />
        </mxCell>
        <mxCell id="ZeaHY3tw1YIDqdw48G7n-99" value="Alt" style="text;html=1;strokeColor=none;fillColor=none;align=center;verticalAlign=middle;whiteSpace=wrap;rounded=0;" vertex="1" parent="1">
          <mxGeometry x="60" y="660" width="60" height="30" as="geometry" />
        </mxCell>
        <mxCell id="ZeaHY3tw1YIDqdw48G7n-100" value="[비상상황 ?]" style="text;html=1;strokeColor=none;fillColor=none;align=center;verticalAlign=middle;whiteSpace=wrap;rounded=0;" vertex="1" parent="1">
          <mxGeometry x="54" y="685" width="85" height="30" as="geometry" />
        </mxCell>
      </root>
    </mxGraphModel>
  </diagram>
</mxfile>
